<?xml version="1.0" encoding="UTF-8"?>
<svg width="20px" height="20px" viewBox="0 0 20 20" version="1.1" xmlns="http://www.w3.org/2000/svg" xmlns:xlink="http://www.w3.org/1999/xlink">
    <title>编组 40备份 3</title>
    <defs>
        <filter id="filter-1">
            <feColorMatrix in="SourceGraphic" type="matrix" values="0 0 0 0 1.000000 0 0 0 0 1.000000 0 0 0 0 1.000000 0 0 0 1.000000 0"></feColorMatrix>
        </filter>
    </defs>
    <g id="页面-1" stroke="none" stroke-width="1" fill="none" fill-rule="evenodd">
        <g id="编组-40备份-3" transform="translate(10.000000, 10.000000) scale(-1, 1) translate(-10.000000, -10.000000) ">
            <rect id="矩形" fill="#6647FF" transform="translate(10.000000, 10.000000) rotate(-45.000000) translate(-10.000000, -10.000000) " x="2.94117647" y="2.94117647" width="14.1176471" height="14.1176471" rx="2.35294118"></rect>
            <g filter="url(#filter-1)" id="编组">
                <g transform="translate(9.264706, 9.882353) scale(-1, 1) translate(-9.264706, -9.882353) translate(6.764706, 5.882353)">
                    <path d="M0.528913186,7.89219547 C0.380663064,7.89219547 0.281829658,7.84277877 0.182996244,7.74394535 C-0.0146705857,7.54627852 0.0347461217,7.24977829 0.232412951,7.05211146 L3.39508215,4.18594249 C3.49391557,4.08710908 3.54333227,3.98827566 3.54333227,3.88944226 C3.54333227,3.79060884 3.49391557,3.69177543 3.39508215,3.59294201 L0.182996244,0.875023161 C-0.0146705857,0.677356332 -0.0640872843,0.380856096 0.133579536,0.183189276 C0.331246366,-0.0144775536 0.627746601,-0.0638942522 0.825413422,0.133772568 L3.98808263,2.85169142 C4.28458287,3.09877495 4.4822497,3.49410861 4.4822497,3.88944226 C4.4822497,4.28477591 4.33399957,4.63069285 4.03749934,4.92719309 L0.874830129,7.79336206 C0.775996714,7.84277877 0.627746601,7.89219547 0.528913186,7.89219547 L0.528913186,7.89219547 Z" id="路径" fill="#000000" fill-rule="nonzero"></path>
                </g>
            </g>
        </g>
    </g>
</svg>