<?xml version="1.0" encoding="UTF-8"?>
<svg width="202px" height="359px" viewBox="0 0 202 359" version="1.1" xmlns="http://www.w3.org/2000/svg" xmlns:xlink="http://www.w3.org/1999/xlink">
    <title>路径备份 11</title>
    <g id="复盘" stroke="none" stroke-width="1" fill="none" fill-rule="evenodd">
        <path d="M201,1.5 L201,355.462306 C201,355.738448 200.776142,355.962306 200.5,355.962306 L5.48824063,355.962306 C5.21209826,355.962306 4.98824063,356.186163 4.98824063,356.462306 L4.98824063,357.791608 C4.98824063,358.06775 4.76438301,358.291608 4.48824063,358.291608 C4.35550204,358.291608 4.2282111,358.238826 4.13442138,358.144895 L1.3527562,355.359042 C1.15784854,355.163841 1.15784854,354.847668 1.3527562,354.652467 L4.13442138,351.866614 C4.32953658,351.671205 4.64611898,351.670967 4.84152796,351.866082 C4.93545889,351.959872 4.98824063,352.087162 4.98824063,352.219901 L4.98824063,353.465183 C4.98823824,353.741325 5.21209586,353.965183 5.48823824,353.965183 C5.48823904,353.965183 5.48823983,353.965183 5.48824063,353.96518 L198.50588,353.964257 C198.782021,353.964254 199.005877,353.740396 199.00588,353.464255 L199.00588,3.49619491 C199.005882,3.22005254 198.782024,2.99619491 198.505882,2.99619491 C198.505881,2.99619491 198.50588,2.99619491 198.50588,2.9961973 L4.98971055,2.99712038 C4.71356818,2.99712408 4.48970948,2.77326752 4.48970817,2.49712515 C4.48970817,2.49712435 4.48970817,2.49712356 4.48971055,2.49712276 L4.48971055,1.5 C4.48971055,1.22385763 4.71356818,1 4.98971055,1 L200.5,1 C200.776142,1 201,1.22385763 201,1.5 Z" id="路径备份-11" stroke="#EFF1F6" fill="#F0F1F6" fill-rule="nonzero"></path>
    </g>
</svg>