<?xml version="1.0" encoding="UTF-8"?>
<svg width="41px" height="67px" viewBox="0 0 41 67" version="1.1" xmlns="http://www.w3.org/2000/svg" xmlns:xlink="http://www.w3.org/1999/xlink">
    <title>路径备份 11</title>
    <g id="复盘" stroke="none" stroke-width="1" fill="none" fill-rule="evenodd">
        <path d="M40.5,0.5 L40.5,63.5 C40.5,63.7761424 40.2761424,64 40,64 L4.5,64 C4.22385763,64 4,64.2238576 4,64.5 L4,65.834964 C4,66.1111064 3.77614237,66.334964 3.5,66.334964 C3.36739176,66.334964 3.2402148,66.2822856 3.14644661,66.1885174 L0.353553391,63.3956242 C0.158291245,63.2003621 0.158291245,62.8837796 0.353553391,62.6885174 L3.14644661,59.8956242 C3.34170876,59.7003621 3.65829124,59.7003621 3.85355339,59.8956242 C3.94732158,59.9893924 4,60.1165693 4,60.2491776 L4,61.5 C3.99998653,61.7761424 4.22384416,62 4.49998653,62 C4.49999102,62 4.49999551,62 4.5,61.9999865 L38,61.9990843 C38.2761371,61.9990634 38.4999865,61.7752079 38.5,61.4990708 L38.5,2.49907081 C38.5000133,2.22292844 38.2761556,1.99907081 38.0000133,1.99907081 C38.0000088,1.99907081 38.0000044,1.99907081 38,1.99908409 L4,1.99998673 C3.72385763,2.00000733 3.49999406,1.77615565 3.49998673,1.50001327 C3.49998673,1.50000885 3.49998673,1.50000442 3.5,1.5 L3.5,0.5 C3.5,0.223857625 3.72385763,1.13737564e-13 4,1.13686838e-13 L40,1.13686838e-13 C40.2761424,1.13636111e-13 40.5,0.223857625 40.5,0.5 Z" id="路径备份-11" fill="#F0F1F6" fill-rule="nonzero"></path>
    </g>
</svg>